<?xml version="1.0" standalone="no"?>
<!DOCTYPE svg PUBLIC "-//W3C//DTD SVG 20010904//EN"
 "http://www.w3.org/TR/2001/REC-SVG-20010904/DTD/svg10.dtd">
<svg version="1.0" xmlns="http://www.w3.org/2000/svg"
 width="1140.000000pt" height="1082.000000pt" viewBox="0 0 1140.000000 1082.000000"
 preserveAspectRatio="xMidYMid meet">

<g transform="translate(0.000000,1082.000000) scale(0.100000,-0.100000)"
fill="#000000" stroke="none">
<path d="M4670 10791 c-405 -89 -923 -293 -1310 -515 -202 -116 -539 -345
-712 -482 -161 -127 -297 -343 -355 -562 -24 -86 -26 -116 -27 -267 0 -153 3
-180 26 -265 14 -52 29 -103 33 -112 5 -13 -2 -19 -37 -28 -122 -30 -249 -76
-346 -125 -399 -199 -674 -560 -774 -1013 -18 -81 -22 -129 -22 -292 0 -178 2
-205 28 -314 l27 -118 -73 -77 c-199 -206 -323 -442 -385 -731 -26 -121 -25
-440 1 -560 41 -191 114 -366 216 -519 l61 -91 -39 -67 c-74 -128 -132 -284
-169 -454 -25 -118 -25 -419 0 -539 43 -206 130 -408 242 -565 107 -150 286
-317 426 -398 l46 -27 -15 -87 c-18 -113 -11 -395 13 -503 44 -199 129 -394
242 -554 79 -110 239 -268 351 -344 116 -80 288 -162 414 -199 l98 -29 50 -84
c116 -193 286 -378 460 -502 508 -361 1150 -412 1705 -137 292 145 553 394
710 678 28 50 52 90 55 90 3 0 28 -40 55 -90 432 -780 1413 -1079 2203 -669
282 146 512 362 671 630 l50 84 98 28 c127 38 298 120 415 200 115 79 273 235
357 353 108 153 192 347 236 545 24 107 31 389 13 503 l-15 87 46 27 c140 81
319 248 426 398 112 157 199 359 242 565 25 120 25 421 0 539 -37 170 -95 326
-169 454 l-39 67 61 91 c102 153 175 328 216 519 26 120 27 439 1 560 -62 289
-186 525 -385 731 l-73 77 27 118 c26 109 28 136 28 314 0 163 -4 211 -22 292
-100 453 -375 814 -774 1013 -97 49 -224 95 -346 125 -35 9 -42 15 -37 28 4 9
19 60 33 112 23 85 26 112 26 265 -1 151 -3 181 -27 267 -58 219 -194 435
-355 562 -87 69 -281 207 -437 311 -448 298 -932 513 -1485 662 -128 35 -143
37 -295 37 -138 1 -171 -2 -240 -22 -179 -52 -338 -154 -440 -284 -33 -42 -62
-76 -65 -76 -3 0 -32 34 -65 76 -101 129 -260 232 -435 282 -108 32 -323 37
-440 11z m322 -302 c29 -6 91 -29 138 -51 135 -65 228 -174 288 -340 l27 -73
3 -3653 2 -3653 -112 114 c-209 212 -440 353 -733 447 -161 51 -242 35 -281
-57 -30 -71 -8 -157 50 -192 17 -10 65 -26 106 -36 277 -66 543 -242 719 -475
113 -150 204 -362 237 -550 20 -118 14 -425 -11 -534 -57 -251 -171 -467 -341
-646 -186 -195 -387 -313 -654 -383 -108 -28 -126 -30 -310 -31 -153 -1 -213
3 -280 17 -268 58 -496 181 -685 371 -111 112 -179 205 -251 344 -57 110 -78
126 -201 152 -410 84 -749 411 -860 827 -23 88 -26 117 -27 278 -1 157 2 192
23 274 39 158 23 204 -94 263 -293 147 -510 405 -599 711 -76 261 -55 549 55
786 41 89 43 91 63 76 81 -60 211 -142 273 -171 193 -93 417 -144 635 -144
158 0 205 11 249 56 31 32 34 40 34 99 0 69 -15 99 -68 139 -25 18 -40 20
-157 18 -276 -6 -479 51 -698 198 -98 66 -238 204 -301 299 -234 347 -264 774
-81 1147 66 135 144 237 273 359 115 109 131 140 110 215 -6 19 -22 76 -37
125 -94 314 -34 689 155 966 55 81 176 208 258 270 129 96 320 180 481 209 85
15 256 19 351 8 338 -38 646 -236 830 -532 100 -162 154 -340 168 -548 7 -107
12 -131 31 -158 61 -86 205 -79 260 12 42 69 16 348 -51 548 -146 442 -495
790 -929 928 -112 36 -217 58 -317 68 l-72 7 -31 74 c-46 110 -64 217 -56 338
7 123 26 196 77 300 100 201 283 352 499 411 102 28 312 26 410 -5 228 -71
397 -215 492 -421 72 -155 71 -154 118 -177 55 -28 82 -29 136 -2 90 43 107
122 56 254 -115 295 -366 528 -678 631 l-114 37 62 36 c106 60 385 185 553
249 159 60 424 142 540 167 75 17 197 18 267 4z m1650 -43 c260 -76 533 -184
870 -344 329 -157 609 -348 849 -580 218 -210 301 -388 286 -611 -8 -111 -26
-178 -83 -303 -100 -218 -51 -301 199 -338 154 -24 265 -58 387 -121 347 -178
573 -514 612 -910 15 -145 1 -293 -38 -424 -15 -49 -31 -106 -37 -125 -21 -75
-5 -106 110 -215 129 -122 207 -224 273 -359 199 -404 146 -869 -138 -1224
-68 -85 -82 -111 -89 -171 -8 -70 10 -110 84 -193 115 -127 179 -307 190 -533
22 -466 -222 -882 -642 -1093 -117 -59 -133 -105 -94 -263 21 -82 24 -117 23
-274 -1 -163 -3 -189 -28 -280 -96 -353 -345 -636 -677 -769 -46 -19 -98 -37
-115 -41 -30 -6 -32 -4 -38 28 -25 131 -180 213 -301 158 -86 -39 -129 -106
-130 -202 0 -87 36 -150 110 -188 28 -14 52 -27 54 -29 13 -8 -128 -192 -214
-278 -189 -190 -417 -313 -685 -371 -67 -14 -127 -18 -280 -17 -184 1 -202 3
-310 31 -267 70 -468 188 -654 383 -175 185 -297 421 -347 675 -12 59 -14 744
-14 4315 l0 4245 27 73 c58 161 153 274 280 337 111 54 164 65 293 61 94 -4
133 -11 267 -50z"/>
<path d="M2511 7288 c-69 -47 -76 -65 -79 -214 -10 -378 132 -740 397 -1017
150 -156 300 -260 489 -339 112 -47 287 -93 390 -103 40 -4 72 -9 72 -12 0
-12 -59 -118 -100 -179 -167 -247 -383 -376 -673 -402 -105 -10 -131 -21 -171
-75 -14 -20 -20 -43 -20 -80 0 -66 30 -118 81 -142 76 -37 328 1 505 74 292
122 550 396 687 731 l37 92 114 29 c266 69 497 203 686 400 39 41 78 88 88
106 57 112 -50 245 -175 218 -23 -5 -66 -39 -144 -114 -248 -240 -494 -344
-815 -344 -193 0 -347 36 -515 121 -392 198 -625 584 -625 1034 0 135 -12 174
-63 210 -46 33 -123 36 -166 6z"/>
<path d="M4180 4256 c-338 -59 -646 -207 -903 -431 -234 -206 -410 -572 -433
-903 -3 -42 -7 -91 -10 -108 l-4 -30 -133 0 c-115 1 -136 -2 -167 -19 -72 -43
-96 -146 -50 -220 34 -55 61 -64 212 -70 331 -12 548 -97 743 -290 218 -216
334 -485 393 -914 9 -62 15 -79 43 -108 83 -85 212 -58 255 52 16 42 16 53 1
173 -65 515 -318 954 -686 1190 -63 41 -222 117 -265 128 l-29 7 6 131 c4 94
13 159 31 231 31 120 123 313 194 405 91 119 253 241 447 336 147 72 257 106
428 134 130 21 164 38 191 94 34 71 12 149 -56 199 -35 26 -109 30 -208 13z"/>
<path d="M6810 10244 c-32 -13 -71 -60 -81 -98 -21 -77 34 -160 115 -173 42
-7 119 26 136 57 38 71 31 136 -20 185 -23 22 -40 29 -82 31 -29 2 -60 1 -68
-2z"/>
<path d="M6252 9803 c-38 -7 -99 -74 -107 -116 -20 -105 52 -197 155 -197 50
0 89 19 124 61 l27 32 541 26 c369 18 543 30 545 37 5 15 -48 19 -617 45
l-465 22 -29 35 c-45 53 -98 70 -174 55z"/>
<path d="M6005 9186 c-102 -47 -138 -163 -82 -258 31 -53 91 -88 152 -88 54 0
120 35 145 76 17 27 28 34 53 35 434 10 1261 46 1264 55 5 15 -82 19 -743 41
l-541 17 -22 40 c-12 23 -37 52 -57 65 -43 30 -125 38 -169 17z"/>
<path d="M6210 8568 c-119 -61 -145 -223 -50 -318 34 -34 94 -60 140 -60 66 0
139 44 180 108 15 22 19 22 534 47 286 14 522 28 525 30 17 18 -68 25 -531 45
l-517 24 -5 22 c-9 36 -57 85 -101 105 -55 25 -121 24 -175 -3z"/>
<path d="M6810 8141 c-85 -27 -140 -86 -160 -170 -31 -132 74 -261 214 -261
177 0 279 193 181 342 -45 69 -162 113 -235 89z"/>
<path d="M7492 7759 c-80 -40 -132 -124 -132 -215 0 -68 19 -113 68 -164 85
-88 213 -100 310 -30 144 104 128 325 -29 404 -68 34 -154 36 -217 5z"/>
<path d="M8255 7368 c-51 -18 -92 -55 -119 -110 -45 -90 -31 -176 43 -249 160
-161 423 -5 361 215 -33 119 -166 186 -285 144z"/>
<path d="M8825 6884 c-44 -16 -77 -44 -105 -89 l-19 -31 -511 -24 c-280 -13
-515 -27 -522 -31 -7 -5 -10 -11 -6 -14 5 -5 904 -54 1004 -55 26 0 36 -8 61
-48 37 -60 96 -92 168 -92 177 0 266 210 141 334 -62 62 -132 79 -211 50z"/>
<path d="M9040 6228 c-39 -20 -81 -65 -92 -99 -2 -7 -229 -18 -640 -33 -350
-12 -640 -25 -644 -29 -4 -4 -5 -10 -1 -13 3 -3 295 -16 648 -28 493 -16 643
-24 647 -34 9 -27 58 -75 89 -88 155 -65 304 89 234 241 -22 48 -44 69 -94 90
-51 21 -95 19 -147 -7z"/>
<path d="M8822 5583 c-30 -15 -66 -50 -74 -73 -2 -7 -943 -60 -1065 -60 -14 0
-23 -6 -23 -15 0 -11 12 -15 48 -15 26 0 269 -11 539 -24 l492 -24 34 -36 c19
-19 46 -40 61 -46 105 -40 220 39 220 150 0 117 -126 195 -232 143z"/>
<path d="M8295 5113 c-98 -25 -137 -162 -66 -234 89 -89 241 -28 241 96 0 45
-27 96 -62 119 -27 17 -84 27 -113 19z"/>
<path d="M7510 4817 c-49 -16 -123 -93 -138 -143 -27 -93 -9 -180 51 -242 97
-102 245 -105 341 -8 43 43 76 114 76 166 0 89 -62 184 -144 221 -46 21 -131
23 -186 6z"/>
<path d="M6793 4330 c-67 -40 -87 -110 -51 -180 29 -57 75 -83 137 -77 57 6
92 33 115 91 20 46 20 46 0 93 -35 85 -127 119 -201 73z"/>
<path d="M6247 3896 c-50 -18 -67 -34 -88 -81 -32 -69 -19 -137 36 -188 70
-64 200 -46 243 35 l13 24 540 25 c297 15 543 29 546 33 3 3 3 9 0 13 -4 4
-251 18 -548 33 l-540 26 -24 31 c-24 30 -89 63 -123 63 -9 -1 -34 -7 -55 -14z"/>
<path d="M6005 3281 c-47 -21 -92 -70 -101 -109 -3 -15 -8 -33 -10 -41 -6 -20
16 -92 38 -124 64 -90 225 -87 289 5 12 18 24 35 26 37 1 2 291 14 643 26 353
13 644 25 647 29 4 3 3 9 0 13 -4 3 -294 16 -644 28 -586 20 -638 24 -648 40
-39 68 -109 115 -170 115 -16 0 -48 -9 -70 -19z"/>
<path d="M6230 2678 c-19 -7 -50 -28 -70 -48 -95 -95 -68 -260 52 -319 101
-49 212 -10 273 94 10 16 58 20 520 42 281 13 516 26 524 29 45 16 -52 24
-479 44 -261 11 -493 23 -515 26 -34 4 -43 11 -63 44 -45 79 -152 117 -242 88z"/>
<path d="M6809 2236 c-86 -23 -136 -76 -159 -168 -37 -147 111 -294 260 -258
104 25 173 110 173 214 -1 146 -134 250 -274 212z"/>
<path d="M7495 1856 c-27 -13 -60 -34 -72 -47 -60 -66 -80 -185 -44 -264 26
-59 101 -121 162 -135 227 -55 390 211 236 386 -75 85 -181 108 -282 60z"/>
</g>
</svg>
